<svg xmlns="http://www.w3.org/2000/svg" xmlns:xlink="http://www.w3.org/1999/xlink" version="1.1" x="0px" y="0px" viewBox="0 0 192.239 190.83124999999998" style="enable-background:new 0 0 192.239 152.665;" xml:space="preserve"><g><path fill="currentColor" d="M155.568,106.882c-0.159,1.435-0.154,2.671-0.034,3.756c-1.468,1.886-2.847,3.981-4.098,6.314   c-1.118-4.593-2.75-8.549-4.702-11.984c0.279-1.063,0.463-2.294,0.515-3.75c0.61-17.568-27.92-20.274-34.431-18.059   c11.528,6.984,8.138,9.642,11.637,16.376c2.932,5.642,16.511,15.331,21.204,8.003c1.828,3.803,3.22,8.178,3.95,13.213   c-2.102,4.885-3.684,12.928-4.514,19.748c-10.151,0.802-18.657,10.939-18.657,10.939h40.494   c-5.825-6.939-9.413-10.25-18.734-10.906c0.334-4.188,0.997-10.256,1.944-13.689c0.594-2.153,1.292-4.166,2.085-6.046   c1.156-2.751,2.518-5.204,4.009-7.42c3.599,7.906,18.419,0.279,22.13-4.878c4.432-6.16,1.459-9.279,13.873-14.528   C186.116,90.839,157.494,89.407,155.568,106.882z M145.392,107.219c0,0-1.844-6.704-15.949-16.805   c14.169,6.461,16.827,14.245,16.827,14.245S145.946,105.897,145.392,107.219z M156.474,113.071   c-0.405-1.375-0.594-2.641-0.594-2.641s3.648-6.766,18.439-11.641C159.193,107.29,156.474,113.071,156.474,113.071z"/><path fill="currentColor" d="M46.977,94.867l-8.528,1.37c1.231-2.783,2.581-5.524,3.986-8.206c-0.828-1.408-1.548-2.736-2.159-3.95   c-6.695-13.176-7.751-24.267-7.915-27.351v-0.017l-0.004-0.089c-0.099-2.668,0.847-5.216,2.667-7.173   c1.817-1.959,4.289-3.091,6.958-3.188c0.125-0.005,0.25-0.009,0.375-0.009c5.388,0,9.772,4.22,9.983,9.608l0.013,0.166   c0.013,0.155,0.041,0.491,0.095,0.944c0.097,0.866,0.295,2.275,0.686,4.104c0.336,1.585,0.849,3.598,1.604,5.875   c0.29-0.479,0.585-0.964,0.865-1.428c6.092-8.378,6.627-20.855-0.672-25.767c-7.299-4.913-20.513-4.775-30.24,7.271   C11.412,63.673,5.558,75.516,0.411,97.281c-2.551,16.203,7.259,21.52,15.913,24.536c3.114,1.086,5.646,1.837,7.8,1.736   c0.893,0.052,1.803,0.017,2.723-0.131l2.964-0.478l-9.167,7.589c-5.321,4.401-6.062,12.281-1.661,17.601   c2.472,2.986,6.042,4.53,9.638,4.53c2.808,0,5.631-0.94,7.963-2.87l38.13-31.563C61.571,111.363,52.746,102.596,46.977,94.867z"/><path fill="currentColor" d="M84.5,98.171c-2.319-5.123-7.815-8.077-13.367-7.184l-0.781,0.125c4.325,3.967,9.343,7.333,15.082,10.129   C85.258,100.199,84.952,99.167,84.5,98.171z"/><path fill="currentColor" d="M127.275,135.228c0,0,8.213-0.335,9.748-4.372c1.537-4.035-4.375-9.75-4.375-9.75s-0.043-0.024-0.121-0.071   c-1.225-0.713-11.402-6.626-14.244-7.706c-3.025-1.151-8.742,4.757-8.742,4.757l-3.057-1.163l0.463-1.217   c0.092-0.237-0.088-0.528-0.4-0.646c-0.311-0.119-0.638-0.021-0.729,0.217l-0.283,0.745l-3.178-1.351   c0.019,1.09-0.131,2.2-0.492,3.293c-0.248,0.752-0.58,1.457-0.98,2.109l2.753,0.929l-0.285,0.745c-0.09,0.239,0.09,0.529,0.4,0.648   c0.314,0.118,0.639,0.021,0.73-0.218l0.463-1.216l3.058,1.162c0,0,0.34,8.214,3.367,9.366c2.842,1.08,14.375,3.433,15.763,3.712   C127.225,135.22,127.275,135.228,127.275,135.228z"/><ellipse fill="currentColor" transform="matrix(0.5454 -0.8382 0.8382 0.5454 16.718 75.815)" cx="78.251" cy="22.496" rx="22.493" ry="22.495"/><path fill="currentColor" d="M94.875,107.233c-22.176-7.387-32.795-20.179-38.56-31.319c-2.841-5.569-4.354-10.727-5.139-14.421   c-0.394-1.845-0.607-3.322-0.717-4.289c-0.056-0.485-0.086-0.843-0.104-1.054c-0.006-0.107-0.011-0.177-0.013-0.209h-0.001   c-0.174-4.405-3.88-7.843-8.288-7.68c-4.415,0.162-7.863,3.875-7.699,8.289c0.043,0.737,0.508,12.463,7.708,26.632   c7.13,14.151,21.521,30.646,47.799,39.244c0.832,0.275,1.678,0.405,2.509,0.405c3.358,0.001,6.486-2.131,7.596-5.494   C101.35,113.14,99.07,108.618,94.875,107.233z"/></g><text x="0" y="167.665" fill="currentColor" font-size="5px" font-weight="bold" font-family="'Helvetica Neue', Helvetica, Arial-Unicode, Arial, Sans-serif"></text><text x="0" y="172.665" fill="currentColor" font-size="5px" font-weight="bold" font-family="'Helvetica Neue', Helvetica, Arial-Unicode, Arial, Sans-serif"></text></svg>